<svg width="120" height="32" viewBox="0 0 120 32" fill="none" xmlns="http://www.w3.org/2000/svg">
<path fill-rule="evenodd" clip-rule="evenodd" d="M14.9995 6.58452L19.227 5.67721L17.424 11.0539L22.8278 5.41368L24.6614 11.7843L27.3902 8.42391L27.1324 19.2887L28.7671 21.855L21.1143 26.0272L21.7965 27.6455L14.7363 31.6551L4.96339 26.4517L5.62051 25.0386L0 23.8076L2.87207 21.954L0.383117 18.4698L2.51212 10.396L3.99476 13.2965L5.55075 7.17879L7.73876 8.80063L15.0139 0.206787L14.9995 6.58452Z" fill="#FF4401"/>
<path fill-rule="evenodd" clip-rule="evenodd" d="M39.1158 28.913L35.6122 28.7931C35.3051 27.9593 34.972 26.7901 34.6022 25.492C34.1942 24.0597 33.7414 22.4704 33.2294 21.0012C32.9846 23.0211 32.8207 25.0929 32.7068 26.5323C32.6071 27.7913 32.5458 28.5664 32.5022 28.3994L29.5898 28.6893L31.8774 7.52379L40.2402 6.96364L38.2175 18.4492L34.6414 16.9907C35.5893 19.7717 38.3463 26.957 39.1158 28.913ZM37.4072 9.997L34.6379 10.2887L34.2637 14.2008L36.4806 14.7144L37.4072 9.997Z" fill="#FEFEFE"/>
<path fill-rule="evenodd" clip-rule="evenodd" d="M39.7971 29.1725L41.8658 7.51842L50.4598 7.15513L48.1334 28.7358L39.7971 29.1725ZM42.8401 26.2876L45.6765 26.9265L47.2986 9.94152L44.4251 9.69635L42.8401 26.2876Z" fill="#FEFEFE"/>
<path d="M55.2695 25.7007L56.0391 19.7717L59.172 18.8537L57.8959 28.462L49.7979 28.9345L51.9601 7.46652L60.1817 6.82764L60.0264 8.67986C59.9717 9.35454 59.5498 14.4083 59.5286 14.6464L56.438 15.491C56.4521 15.3461 56.6622 12.8872 56.8528 10.5679L54.6182 11.026L53.1409 25.9566L55.2695 25.7007Z" fill="#FEFEFE"/>
<path d="M68.5868 7.38778L71.5521 7.25356L71.456 7.41157L73.7867 7.25893L75.6188 12.2913L78.141 7.25893L81.2386 6.86522L76.8137 16.3948L75.4281 28.4763L72.357 28.981L73.7937 16.4002L71.1135 7.97486L65.1609 17.7638L69.1834 28.3528L66.6064 28.4978L63.0357 19.378L62.6386 28.5658H59.6257L61.6608 7.25356H64.6755L63.2546 15.4302L68.5868 7.38778Z" fill="#FEFEFE"/>
<path d="M89.5926 10.3603L89.439 16.0011L93.8905 15.6109L93.1051 28.981L85.1571 28.8969L86.0537 21.1623L89.0049 21.0799L88.2918 25.9655L90.258 26.055L90.6781 18.9306L86.3238 19.31L87.1286 7.7099L95.186 7.30546L94.21 13.7695L91.2994 14.0397L92.0708 10.3603H89.5926Z" fill="#FEFEFE"/>
<path fill-rule="evenodd" clip-rule="evenodd" d="M104.407 7.50768L103.307 17.9499L98.4073 19.2277L97.5018 28.7L94.4588 29.006L96.531 7.31619L104.407 7.50768ZM101.831 10.4283L99.2492 10.4032L98.7267 15.8758L101.697 14.9882L101.831 10.4283Z" fill="#FEFEFE"/>
<path d="M103.081 28.7358L105.695 7.53452L108.832 7.25356L106.406 28.5658L103.081 28.7358Z" fill="#FEFEFE"/>
<path d="M116.025 13.7937C116.277 10.6502 116.492 7.96939 116.575 7.39852L120.001 7.2643C119.72 9.18811 117.742 28.6589 117.742 28.6589L113.924 28.5658L112.342 17.1106L112.303 17.5723L111.25 28.5908H108.237L109.289 17.5831L110.136 7.25356L113.419 7.23745L115.285 22.6154C115.51 20.2052 115.784 16.7894 116.025 13.7937Z" fill="#FEFEFE"/>
<path d="M80.7868 19.1149L77.495 19.6052L83.2102 9.78933L82.0383 16.8689L85.6019 16.5236L79.5566 26.3824L80.7868 19.1149Z" fill="#FEFEFE"/>
<path d="M17.9215 14.2472L22.4244 17.0883L20.7012 11.7932L17.9215 14.2472Z" fill="black"/>
<path d="M6.59268 16.4121L10.8734 14.447L7.53279 12.1282L6.59268 16.4121Z" fill="black"/>
<path d="M10.9829 25.1504L14.327 21.9852L10.6953 16.5438L4.10938 21.5574L10.9829 25.1504Z" fill="black"/>
<path d="M15.4028 21.9241L17.5722 16.7753L26.3012 21.1703L18.6869 25.0004L15.4028 21.9241Z" fill="black"/>
<path d="M16.5439 25.23L14.6002 27.5174L13.2015 25.0411L14.9601 24.1781L16.5439 25.23Z" fill="black"/>
<path d="M26.3012 21.248L25.5445 19.1914L18.0079 14.2759L15.8672 16.1825L15.7733 21.248L17.595 16.9024L26.3012 21.248Z" fill="#FEFEFE"/>
<path d="M10.8875 14.5158L4.20153 17.6522L4.10938 21.7242L10.7298 16.6774L13.4943 20.7905L12.6631 15.7531L10.8875 14.5158Z" fill="#FEFEFE"/>
<path d="M8.92953 20.6797L11.3749 19.3955L12.4665 21.3415L8.92953 20.6797Z" fill="#FEFEFE"/>
<path d="M20.4179 20.6275L17.9317 19.4389L16.9058 21.4243L20.4179 20.6275Z" fill="#FEFEFE"/>
</svg>
